<svg width="345" height="226" viewBox="0 0 345 226" fill="none" xmlns="http://www.w3.org/2000/svg">
<g id="Frame 1">
<rect width="345" height="226" fill="white"/>
<g id="Monitor_group">
<rect id="monitor_shadow_2" y="42" width="293" height="184" fill="#E28585"/>
<rect id="monitor_shadow_1" x="52" y="24" width="293" height="184" fill="#726FD5"/>
<rect id="monitor" x="21" width="293" height="184" fill="#F1DDA6"/>
</g>
<g id="A">
<path id="Left" d="M209.403 181.201L229.203 160.595L208.597 140.794L188.797 161.401L209.403 181.201ZM206.619 41.6606C216.927 41.4549 225.116 32.9325 224.91 22.6253C224.704 12.318 216.182 4.12902 205.875 4.33466C195.567 4.5403 187.378 13.0627 187.584 23.37C187.79 33.6772 196.312 41.8662 206.619 41.6606ZM212.499 160.928L209.746 22.9278L202.748 23.0674L205.501 161.067L212.499 160.928Z" fill="#E28585"/>
</g>
<g id="E">
<path id="Top" d="M28.6467 24.0297L49.6651 44.0195L69.0592 23.6275L48.0408 3.63768L28.6467 24.0297ZM135.747 22.9639C136.161 33.2649 144.854 41.5324 155.163 41.4298C165.472 41.3272 173.493 32.8934 173.078 22.5925C172.664 12.2915 163.971 4.02403 153.662 4.12661C143.354 4.22919 135.333 12.663 135.747 22.9639ZM48.9936 27.3258L154.553 26.2754L154.272 19.281L48.7123 20.3314L48.9936 27.3258Z" fill="#726FD5"/>
<path id="Middle" d="M28.6569 91.5701L48.8295 111.812L69.0713 91.6393L48.8987 71.3975L28.6569 91.5701ZM271.333 91.9852C271.316 102.294 279.659 110.666 289.968 110.684C300.277 110.701 308.649 102.358 308.667 92.049C308.684 81.7397 300.341 73.3681 290.032 73.3505C279.723 73.3328 271.351 81.6759 271.333 91.9852ZM48.8581 95.1047L289.994 95.5171L290.006 88.5171L48.8701 88.1047L48.8581 95.1047Z" fill="#726FD5"/>
<path id="Bottom" d="M28.6463 162.001L49.0118 182.049L69.0596 161.683L48.6941 141.636L28.6463 162.001ZM135.334 161.162C135.415 171.471 143.838 179.763 154.147 179.682C164.456 179.601 172.747 171.178 172.666 160.869C172.585 150.56 164.162 142.269 153.853 142.35C143.544 142.431 135.253 150.853 135.334 161.162ZM48.8804 165.342L154.028 164.516L153.973 157.516L48.8254 158.342L48.8804 165.342Z" fill="#726FD5"/>
<path id="Vertical" d="M46 23.8286L48.9221 161.41" stroke="#726FD5" stroke-width="7" stroke-linecap="square"/>
</g>
<path id="Right" d="M296.856 178.641L304.641 151.144L277.144 143.359L269.359 170.856L296.856 178.641ZM290.055 159.293L211.108 17.9802L204.997 21.3942L283.945 162.707L290.055 159.293Z" fill="#E28585"/>
</g>
</svg>
