<svg width="241" height="206" viewBox="0 0 241 206" fill="none" xmlns="http://www.w3.org/2000/svg">
<g id="LOGO">
<g id="A-DB" filter="url(#filter0_d_4_2)">
<g id="bottom-db-disc">
<path id="bottom" d="M200.5 128.896C200.5 131.235 198.983 133.555 196.021 135.744C193.069 137.926 188.765 139.912 183.401 141.589C172.681 144.941 157.839 147.021 141.424 147.021C125.009 147.021 110.167 144.941 99.4467 141.589C94.0833 139.912 89.7794 137.926 86.8271 135.744C83.8651 133.555 82.3481 131.235 82.3481 128.896C82.3481 126.558 83.8651 124.238 86.8271 122.049C89.7794 119.867 94.0833 117.881 99.4467 116.204C110.167 112.852 125.009 110.771 141.424 110.771C157.839 110.771 172.681 112.852 183.401 116.204C188.765 117.881 193.069 119.867 196.021 122.049C198.983 124.238 200.5 126.558 200.5 128.896Z" fill="url(#paint0_linear_4_2)" stroke="black"/>
<path id="top" d="M200.5 107.998C200.5 110.336 198.983 112.656 196.021 114.845C193.069 117.027 188.765 119.014 183.401 120.69C172.681 124.042 157.839 126.123 141.424 126.123C125.009 126.123 110.167 124.042 99.4467 120.69C94.0833 119.014 89.7794 117.027 86.8271 114.845C83.8651 112.656 82.3481 110.336 82.3481 107.998C82.3481 105.659 83.8651 103.339 86.8271 101.15C89.7794 98.968 94.0833 96.9818 99.4467 95.3051C110.167 91.9535 125.009 89.8727 141.424 89.8727C157.839 89.8727 172.681 91.9535 183.401 95.3051C188.765 96.9818 193.069 98.968 196.021 101.15C198.983 103.339 200.5 105.659 200.5 107.998Z" fill="url(#paint1_linear_4_2)" stroke="black"/>
<rect id="bottom-menu" x="38.5" y="134.5" width="114.624" height="26.6846" rx="13.3423" fill="url(#paint2_linear_4_2)" stroke="#040404"/>
<rect id="middle-menu" x="38.5" y="90.5" width="114.624" height="26.6846" rx="13.3423" fill="url(#paint3_linear_4_2)" stroke="#040404"/>
<g id="top-db-disc">
<g id="Union">
<mask id="path-5-inside-1_4_2" fill="white">
<path fill-rule="evenodd" clip-rule="evenodd" d="M90.1887 56.9318C86.8858 56.9318 84.0313 58.8517 82.6803 61.6364H81.8481V65.2725V82.0227V82.2841V153.659C81.8481 158.266 85.5823 162 90.1887 162C94.7951 162 98.5294 158.266 98.5294 153.659V92.26C109.366 94.9721 124.578 96.6591 141.424 96.6591C158.27 96.6591 173.483 94.9721 184.319 92.26V153.659C184.319 158.266 188.053 162 192.659 162C197.266 162 201 158.266 201 153.659L201 82.2841V82.0227L201 65.2725C201 65.2687 201 65.2649 201 65.2611V61.6364H200.168C198.817 58.8517 195.962 56.9318 192.659 56.9318C189.356 56.9318 186.502 58.8517 185.151 61.6364H97.6972C96.3462 58.8517 93.4917 56.9318 90.1887 56.9318Z"/>
</mask>
<path fill-rule="evenodd" clip-rule="evenodd" d="M90.1887 56.9318C86.8858 56.9318 84.0313 58.8517 82.6803 61.6364H81.8481V65.2725V82.0227V82.2841V153.659C81.8481 158.266 85.5823 162 90.1887 162C94.7951 162 98.5294 158.266 98.5294 153.659V92.26C109.366 94.9721 124.578 96.6591 141.424 96.6591C158.27 96.6591 173.483 94.9721 184.319 92.26V153.659C184.319 158.266 188.053 162 192.659 162C197.266 162 201 158.266 201 153.659L201 82.2841V82.0227L201 65.2725C201 65.2687 201 65.2649 201 65.2611V61.6364H200.168C198.817 58.8517 195.962 56.9318 192.659 56.9318C189.356 56.9318 186.502 58.8517 185.151 61.6364H97.6972C96.3462 58.8517 93.4917 56.9318 90.1887 56.9318Z" fill="url(#paint4_linear_4_2)"/>
<path d="M82.6803 61.6364V62.6364H83.3066L83.58 62.0729L82.6803 61.6364ZM81.8481 61.6364V60.6364H80.8481V61.6364H81.8481ZM98.5294 92.26L98.7722 91.2899L97.5294 90.9789V92.26H98.5294ZM184.319 92.26H185.319V90.9789L184.076 91.2899L184.319 92.26ZM201 153.659L202 153.659V153.659L201 153.659ZM201 82.2841L200 82.2841V82.2841L201 82.2841ZM201 82.0227L200 82.0227V82.0227H201ZM201 65.2725L202 65.2725V65.2725H201ZM201 61.6364H202V60.6364H201V61.6364ZM200.168 61.6364L199.268 62.0729L199.542 62.6364H200.168V61.6364ZM185.151 61.6364V62.6364H185.777L186.051 62.0729L185.151 61.6364ZM97.6972 61.6364L96.7975 62.0729L97.0709 62.6364H97.6972V61.6364ZM83.58 62.0729C84.7702 59.6197 87.2833 57.9318 90.1887 57.9318V55.9318C86.4883 55.9318 83.2924 58.0837 81.7806 61.1999L83.58 62.0729ZM81.8481 62.6364H82.6803V60.6364H81.8481V62.6364ZM82.8481 65.2725V61.6364H80.8481V65.2725H82.8481ZM82.8481 82.0227V65.2725H80.8481V82.0227H82.8481ZM82.8481 82.2841V82.0227H80.8481V82.2841H82.8481ZM82.8481 153.659V82.2841H80.8481V153.659H82.8481ZM90.1887 161C86.1346 161 82.8481 157.713 82.8481 153.659H80.8481C80.8481 158.818 85.0301 163 90.1887 163V161ZM97.5294 153.659C97.5294 157.713 94.2429 161 90.1887 161V163C95.3474 163 99.5294 158.818 99.5294 153.659H97.5294ZM97.5294 92.26V153.659H99.5294V92.26H97.5294ZM141.424 95.6591C124.634 95.6591 109.507 93.9766 98.7722 91.2899L98.2866 93.2301C109.224 95.9675 124.523 97.6591 141.424 97.6591V95.6591ZM184.076 91.2899C173.341 93.9766 158.214 95.6591 141.424 95.6591V97.6591C158.325 97.6591 173.624 95.9675 184.562 93.2301L184.076 91.2899ZM185.319 153.659V92.26H183.319V153.659H185.319ZM192.659 161C188.605 161 185.319 157.713 185.319 153.659H183.319C183.319 158.818 187.501 163 192.659 163V161ZM200 153.659C200 157.713 196.713 161 192.659 161V163C197.818 163 202 158.818 202 153.659H200ZM200 82.2841L200 153.659L202 153.659L202 82.2841L200 82.2841ZM200 82.0227V82.2841H202V82.0227H200ZM200 65.2725L200 82.0227L202 82.0227L202 65.2725L200 65.2725ZM200 65.2611C200 65.2635 200 65.2659 200 65.2678C200 65.2697 200 65.2711 200 65.2725H202C202 65.27 202 65.2676 202 65.2658C202 65.2638 202 65.2624 202 65.2611H200ZM200 61.6364V65.2611H202V61.6364H200ZM200.168 62.6364H201V60.6364H200.168V62.6364ZM192.659 57.9318C195.565 57.9318 198.078 59.6197 199.268 62.0729L201.068 61.1999C199.556 58.0837 196.36 55.9318 192.659 55.9318V57.9318ZM186.051 62.0729C187.241 59.6197 189.754 57.9318 192.659 57.9318V55.9318C188.959 55.9318 185.763 58.0837 184.251 61.1999L186.051 62.0729ZM97.6972 62.6364H185.151V60.6364H97.6972V62.6364ZM90.1887 57.9318C93.0942 57.9318 95.6073 59.6197 96.7975 62.0729L98.5969 61.1999C97.085 58.0837 93.8892 55.9318 90.1887 55.9318V57.9318Z" fill="black" mask="url(#path-5-inside-1_4_2)"/>
</g>
<path id="top_2" d="M200.5 61.375C200.5 63.0651 199.065 64.8276 196.07 66.5361C193.114 68.2225 188.804 69.7578 183.433 71.0536C172.701 73.6433 157.848 75.25 141.424 75.25C125 75.25 110.147 73.6433 99.4148 71.0536C94.0446 69.7578 89.7338 68.2225 86.7776 66.5361C83.7828 64.8276 82.3481 63.0651 82.3481 61.375C82.3481 59.6849 83.7828 57.9224 86.7776 56.2139C89.7338 54.5275 94.0446 52.9922 99.4148 51.6964C110.147 49.1067 125 47.5 141.424 47.5C157.848 47.5 172.701 49.1067 183.433 51.6964C188.804 52.9922 193.114 54.5275 196.07 56.2139C199.065 57.9224 200.5 59.6849 200.5 61.375Z" fill="url(#paint5_linear_4_2)" stroke="black"/>
</g>
<rect id="top-menu" x="38.5" y="44.5" width="114.624" height="26.6846" rx="13.3423" fill="url(#paint6_linear_4_2)" stroke="#040404"/>
</g>
</g>
<g id="Eduardo Aviles">
<mask id="path-9-outside-2_4_2" maskUnits="userSpaceOnUse" x="31" y="167" width="178" height="23" fill="black">
<rect fill="white" x="31" y="167" width="178" height="23"/>
<path d="M42.9159 186L33.5319 186.216L32.4039 170.4L42.9879 170.064L42.9159 171.672L37.8519 172.272L37.2279 177.24L42.3399 177.192L42.4599 179.352L37.0359 178.944L36.3879 184.296L43.0119 183.528L42.9159 186ZM49.6231 186.552C49.2391 186.552 48.9191 186.488 48.6631 186.36C48.0711 185.752 47.5911 184.848 47.2231 183.648C46.8711 182.448 46.6951 181.112 46.6951 179.64C46.6951 177.736 47.0631 176.336 47.7991 175.44C48.5511 174.544 49.8471 174.096 51.6871 174.096C52.8231 174.096 53.9511 174.32 55.0711 174.768L54.7111 169.608L59.8471 168.816L58.3111 186.144L55.9351 186.36L55.6231 182.232H55.4311C54.1991 185.112 52.2631 186.552 49.6231 186.552ZM52.6231 175.536C52.0311 175.536 51.5271 175.648 51.1111 175.872C50.8871 177.024 50.7751 178.216 50.7751 179.448C50.7751 182.008 50.9351 183.728 51.2551 184.608C52.0391 184.48 52.8631 183.928 53.7271 182.952C54.1751 182.44 54.5431 181.712 54.8311 180.768C55.1351 179.824 55.2871 178.744 55.2871 177.528C55.2871 177.288 55.2711 176.912 55.2391 176.4C54.5191 175.824 53.6471 175.536 52.6231 175.536ZM70.0033 183.192C70.5953 182.424 71.0033 181.592 71.2273 180.696C71.4513 179.8 71.5633 179.024 71.5633 178.368C71.5633 177.696 71.4673 176.4 71.2753 174.48L76.4113 173.688L74.8753 186.144L72.4993 186.36L72.0193 181.8H71.8513C70.6673 184.968 68.7793 186.552 66.1873 186.552C65.8033 186.552 65.4833 186.488 65.2273 186.36C64.4113 185.368 63.8513 183.688 63.5473 181.32C63.2433 178.936 63.0913 176.56 63.0913 174.192L67.8913 173.832C67.6033 176.632 67.4593 178.728 67.4593 180.12C67.4593 181.512 67.5793 183.008 67.8193 184.608C68.6993 184.416 69.4273 183.944 70.0033 183.192ZM81.3416 186.552C81.0696 186.552 80.8696 186.544 80.7416 186.528C80.1976 186.16 79.7576 185.616 79.4216 184.896C79.1016 184.16 78.9416 183.4 78.9416 182.616C78.9416 181.592 79.3256 180.848 80.0936 180.384C80.8776 179.92 82.3096 179.688 84.3896 179.688C85.1576 179.688 85.9576 179.744 86.7896 179.856L86.7416 179.328C86.6776 178.688 86.3736 178.184 85.8296 177.816C85.2856 177.432 84.5896 177.24 83.7416 177.24C82.8936 177.24 82.0456 177.504 81.1976 178.032L80.1416 174.552C81.5176 173.992 83.0856 173.712 84.8456 173.712C86.6056 173.712 87.9976 174.112 89.0216 174.912C90.0456 175.696 90.5576 176.928 90.5576 178.608C90.5576 178.992 90.5416 179.296 90.5096 179.52L89.8376 186.144L87.4616 186.36L87.1016 182.88H86.9096C86.3656 184.032 85.6136 184.936 84.6536 185.592C83.6936 186.232 82.5896 186.552 81.3416 186.552ZM86.8856 180.864L85.6136 180.84C84.5576 180.84 83.6936 180.896 83.0216 181.008C82.7976 181.456 82.6856 181.856 82.6856 182.208C82.6856 182.56 82.7336 182.896 82.8296 183.216C82.9256 183.536 83.0296 183.752 83.1416 183.864C85.0616 183.56 86.3096 182.56 86.8856 180.864ZM101.215 178.104C100.127 178.104 99.3034 178.488 98.7434 179.256C98.1834 180.008 97.7754 181.4 97.5194 183.432L97.1834 186.144L94.8074 186.36L93.5834 174.456L98.7194 173.664L98.2394 177.504H98.4074C99.6874 174.752 101.319 173.288 103.303 173.112L102.631 178.224C102.039 178.144 101.567 178.104 101.215 178.104ZM108.217 186.552C107.833 186.552 107.513 186.488 107.257 186.36C106.665 185.752 106.185 184.848 105.817 183.648C105.465 182.448 105.289 181.112 105.289 179.64C105.289 177.736 105.657 176.336 106.393 175.44C107.145 174.544 108.441 174.096 110.281 174.096C111.417 174.096 112.545 174.32 113.665 174.768L113.305 169.608L118.441 168.816L116.905 186.144L114.529 186.36L114.217 182.232H114.025C112.793 185.112 110.857 186.552 108.217 186.552ZM111.217 175.536C110.625 175.536 110.121 175.648 109.705 175.872C109.481 177.024 109.369 178.216 109.369 179.448C109.369 182.008 109.529 183.728 109.849 184.608C110.633 184.48 111.457 183.928 112.321 182.952C112.769 182.44 113.137 181.712 113.425 180.768C113.729 179.824 113.881 178.744 113.881 177.528C113.881 177.288 113.865 176.912 113.833 176.4C113.113 175.824 112.241 175.536 111.217 175.536ZM131.837 181.584C131.837 183.328 131.453 184.6 130.685 185.4C129.933 186.184 128.533 186.576 126.485 186.576C124.437 186.576 122.837 186.112 121.685 185.184C121.445 184.032 121.325 182.88 121.325 181.728C121.325 180.576 121.485 179.496 121.805 178.488C122.141 177.464 122.557 176.592 123.053 175.872C124.093 174.4 125.021 173.464 125.837 173.064C127.373 173.848 128.725 174.912 129.893 176.256C131.189 177.728 131.837 179.504 131.837 181.584ZM129.053 180.936C129.053 179.416 128.733 178.024 128.093 176.76C126.765 177.464 125.669 178.536 124.805 179.976C123.941 181.416 123.509 182.872 123.509 184.344C124.021 184.44 124.757 184.488 125.717 184.488C126.677 184.488 127.661 184.32 128.669 183.984C128.925 183.008 129.053 181.992 129.053 180.936ZM140.954 186L145.442 170.04L151.25 170.4L154.37 186L152.21 186.36L150.554 182.376L144.17 182.904L143.354 186.36L140.954 186ZM146.498 173.064L144.602 181.056L150.026 181.104L146.69 173.064H146.498ZM160.458 173.688L162.042 182.88H162.234L165.33 173.76L167.274 174.288L162.594 186.048L160.65 186.36L155.322 174.48L160.458 173.688ZM170.888 186.36L169.664 174.48L174.8 173.688L173.264 186.144L170.888 186.36ZM170.408 171.816C169.976 171.368 169.76 170.84 169.76 170.232C169.76 169.624 169.976 169.104 170.408 168.672C170.856 168.224 171.384 168 171.992 168C172.6 168 173.12 168.224 173.552 168.672C174 169.104 174.224 169.624 174.224 170.232C174.224 170.84 174 171.368 173.552 171.816C173.12 172.248 172.6 172.464 171.992 172.464C171.384 172.464 170.856 172.248 170.408 171.816ZM179.373 186.36L178.149 169.608L183.285 168.816L181.749 186.144L179.373 186.36ZM190.641 173.064C194.513 174.616 196.449 176.544 196.449 178.848C196.449 180.048 196.105 180.92 195.417 181.464C194.745 181.992 193.489 182.256 191.649 182.256C190.481 182.256 189.521 182.168 188.769 181.992C188.465 182.744 188.313 183.528 188.313 184.344C189.033 184.44 189.849 184.488 190.761 184.488C192.425 184.488 193.993 184.224 195.465 183.696L196.185 186.024C195.017 186.392 193.705 186.576 192.249 186.576C189.657 186.576 187.753 186.104 186.537 185.16C186.281 184.024 186.153 182.952 186.153 181.944C186.153 179.928 186.593 178.112 187.473 176.496C188.369 174.88 189.425 173.736 190.641 173.064ZM189.249 180.864C189.457 180.88 189.977 180.888 190.809 180.888C191.657 180.888 192.625 180.776 193.713 180.552C193.761 180.248 193.785 179.944 193.785 179.64C193.785 178.68 193.521 177.76 192.993 176.88C191.409 177.936 190.161 179.264 189.249 180.864ZM199.213 178.104C199.213 176.056 200.293 174.184 202.453 172.488L206.389 175.128C204.613 176.264 203.725 177.456 203.725 178.704C203.725 179.36 204.085 180.216 204.805 181.272C205.541 182.328 205.909 183.152 205.909 183.744C205.909 185.84 204.469 187.456 201.589 188.592L200.533 187.176C201.797 186.488 202.429 185.728 202.429 184.896C202.429 184.112 201.893 183.12 200.821 181.92C200.421 181.472 200.053 180.904 199.717 180.216C199.381 179.528 199.213 178.824 199.213 178.104Z"/>
</mask>
<path d="M42.9159 186L33.5319 186.216L32.4039 170.4L42.9879 170.064L42.9159 171.672L37.8519 172.272L37.2279 177.24L42.3399 177.192L42.4599 179.352L37.0359 178.944L36.3879 184.296L43.0119 183.528L42.9159 186ZM49.6231 186.552C49.2391 186.552 48.9191 186.488 48.6631 186.36C48.0711 185.752 47.5911 184.848 47.2231 183.648C46.8711 182.448 46.6951 181.112 46.6951 179.64C46.6951 177.736 47.0631 176.336 47.7991 175.44C48.5511 174.544 49.8471 174.096 51.6871 174.096C52.8231 174.096 53.9511 174.32 55.0711 174.768L54.7111 169.608L59.8471 168.816L58.3111 186.144L55.9351 186.36L55.6231 182.232H55.4311C54.1991 185.112 52.2631 186.552 49.6231 186.552ZM52.6231 175.536C52.0311 175.536 51.5271 175.648 51.1111 175.872C50.8871 177.024 50.7751 178.216 50.7751 179.448C50.7751 182.008 50.9351 183.728 51.2551 184.608C52.0391 184.48 52.8631 183.928 53.7271 182.952C54.1751 182.44 54.5431 181.712 54.8311 180.768C55.1351 179.824 55.2871 178.744 55.2871 177.528C55.2871 177.288 55.2711 176.912 55.2391 176.4C54.5191 175.824 53.6471 175.536 52.6231 175.536ZM70.0033 183.192C70.5953 182.424 71.0033 181.592 71.2273 180.696C71.4513 179.8 71.5633 179.024 71.5633 178.368C71.5633 177.696 71.4673 176.4 71.2753 174.48L76.4113 173.688L74.8753 186.144L72.4993 186.36L72.0193 181.8H71.8513C70.6673 184.968 68.7793 186.552 66.1873 186.552C65.8033 186.552 65.4833 186.488 65.2273 186.36C64.4113 185.368 63.8513 183.688 63.5473 181.32C63.2433 178.936 63.0913 176.56 63.0913 174.192L67.8913 173.832C67.6033 176.632 67.4593 178.728 67.4593 180.12C67.4593 181.512 67.5793 183.008 67.8193 184.608C68.6993 184.416 69.4273 183.944 70.0033 183.192ZM81.3416 186.552C81.0696 186.552 80.8696 186.544 80.7416 186.528C80.1976 186.16 79.7576 185.616 79.4216 184.896C79.1016 184.16 78.9416 183.4 78.9416 182.616C78.9416 181.592 79.3256 180.848 80.0936 180.384C80.8776 179.92 82.3096 179.688 84.3896 179.688C85.1576 179.688 85.9576 179.744 86.7896 179.856L86.7416 179.328C86.6776 178.688 86.3736 178.184 85.8296 177.816C85.2856 177.432 84.5896 177.24 83.7416 177.24C82.8936 177.24 82.0456 177.504 81.1976 178.032L80.1416 174.552C81.5176 173.992 83.0856 173.712 84.8456 173.712C86.6056 173.712 87.9976 174.112 89.0216 174.912C90.0456 175.696 90.5576 176.928 90.5576 178.608C90.5576 178.992 90.5416 179.296 90.5096 179.52L89.8376 186.144L87.4616 186.36L87.1016 182.88H86.9096C86.3656 184.032 85.6136 184.936 84.6536 185.592C83.6936 186.232 82.5896 186.552 81.3416 186.552ZM86.8856 180.864L85.6136 180.84C84.5576 180.84 83.6936 180.896 83.0216 181.008C82.7976 181.456 82.6856 181.856 82.6856 182.208C82.6856 182.56 82.7336 182.896 82.8296 183.216C82.9256 183.536 83.0296 183.752 83.1416 183.864C85.0616 183.56 86.3096 182.56 86.8856 180.864ZM101.215 178.104C100.127 178.104 99.3034 178.488 98.7434 179.256C98.1834 180.008 97.7754 181.4 97.5194 183.432L97.1834 186.144L94.8074 186.36L93.5834 174.456L98.7194 173.664L98.2394 177.504H98.4074C99.6874 174.752 101.319 173.288 103.303 173.112L102.631 178.224C102.039 178.144 101.567 178.104 101.215 178.104ZM108.217 186.552C107.833 186.552 107.513 186.488 107.257 186.36C106.665 185.752 106.185 184.848 105.817 183.648C105.465 182.448 105.289 181.112 105.289 179.64C105.289 177.736 105.657 176.336 106.393 175.44C107.145 174.544 108.441 174.096 110.281 174.096C111.417 174.096 112.545 174.32 113.665 174.768L113.305 169.608L118.441 168.816L116.905 186.144L114.529 186.36L114.217 182.232H114.025C112.793 185.112 110.857 186.552 108.217 186.552ZM111.217 175.536C110.625 175.536 110.121 175.648 109.705 175.872C109.481 177.024 109.369 178.216 109.369 179.448C109.369 182.008 109.529 183.728 109.849 184.608C110.633 184.48 111.457 183.928 112.321 182.952C112.769 182.44 113.137 181.712 113.425 180.768C113.729 179.824 113.881 178.744 113.881 177.528C113.881 177.288 113.865 176.912 113.833 176.4C113.113 175.824 112.241 175.536 111.217 175.536ZM131.837 181.584C131.837 183.328 131.453 184.6 130.685 185.4C129.933 186.184 128.533 186.576 126.485 186.576C124.437 186.576 122.837 186.112 121.685 185.184C121.445 184.032 121.325 182.88 121.325 181.728C121.325 180.576 121.485 179.496 121.805 178.488C122.141 177.464 122.557 176.592 123.053 175.872C124.093 174.4 125.021 173.464 125.837 173.064C127.373 173.848 128.725 174.912 129.893 176.256C131.189 177.728 131.837 179.504 131.837 181.584ZM129.053 180.936C129.053 179.416 128.733 178.024 128.093 176.76C126.765 177.464 125.669 178.536 124.805 179.976C123.941 181.416 123.509 182.872 123.509 184.344C124.021 184.44 124.757 184.488 125.717 184.488C126.677 184.488 127.661 184.32 128.669 183.984C128.925 183.008 129.053 181.992 129.053 180.936ZM140.954 186L145.442 170.04L151.25 170.4L154.37 186L152.21 186.36L150.554 182.376L144.17 182.904L143.354 186.36L140.954 186ZM146.498 173.064L144.602 181.056L150.026 181.104L146.69 173.064H146.498ZM160.458 173.688L162.042 182.88H162.234L165.33 173.76L167.274 174.288L162.594 186.048L160.65 186.36L155.322 174.48L160.458 173.688ZM170.888 186.36L169.664 174.48L174.8 173.688L173.264 186.144L170.888 186.36ZM170.408 171.816C169.976 171.368 169.76 170.84 169.76 170.232C169.76 169.624 169.976 169.104 170.408 168.672C170.856 168.224 171.384 168 171.992 168C172.6 168 173.12 168.224 173.552 168.672C174 169.104 174.224 169.624 174.224 170.232C174.224 170.84 174 171.368 173.552 171.816C173.12 172.248 172.6 172.464 171.992 172.464C171.384 172.464 170.856 172.248 170.408 171.816ZM179.373 186.36L178.149 169.608L183.285 168.816L181.749 186.144L179.373 186.36ZM190.641 173.064C194.513 174.616 196.449 176.544 196.449 178.848C196.449 180.048 196.105 180.92 195.417 181.464C194.745 181.992 193.489 182.256 191.649 182.256C190.481 182.256 189.521 182.168 188.769 181.992C188.465 182.744 188.313 183.528 188.313 184.344C189.033 184.44 189.849 184.488 190.761 184.488C192.425 184.488 193.993 184.224 195.465 183.696L196.185 186.024C195.017 186.392 193.705 186.576 192.249 186.576C189.657 186.576 187.753 186.104 186.537 185.16C186.281 184.024 186.153 182.952 186.153 181.944C186.153 179.928 186.593 178.112 187.473 176.496C188.369 174.88 189.425 173.736 190.641 173.064ZM189.249 180.864C189.457 180.88 189.977 180.888 190.809 180.888C191.657 180.888 192.625 180.776 193.713 180.552C193.761 180.248 193.785 179.944 193.785 179.64C193.785 178.68 193.521 177.76 192.993 176.88C191.409 177.936 190.161 179.264 189.249 180.864ZM199.213 178.104C199.213 176.056 200.293 174.184 202.453 172.488L206.389 175.128C204.613 176.264 203.725 177.456 203.725 178.704C203.725 179.36 204.085 180.216 204.805 181.272C205.541 182.328 205.909 183.152 205.909 183.744C205.909 185.84 204.469 187.456 201.589 188.592L200.533 187.176C201.797 186.488 202.429 185.728 202.429 184.896C202.429 184.112 201.893 183.12 200.821 181.92C200.421 181.472 200.053 180.904 199.717 180.216C199.381 179.528 199.213 178.824 199.213 178.104Z" fill="#F68C8C"/>
<path d="M42.9159 186L42.9389 187L43.8786 186.978L43.9151 186.039L42.9159 186ZM33.5319 186.216L32.5344 186.287L32.6022 187.238L33.5549 187.216L33.5319 186.216ZM32.4039 170.4L32.3721 169.401L31.3324 169.434L31.4064 170.471L32.4039 170.4ZM42.9879 170.064L43.9869 170.109L44.0352 169.03L42.9561 169.065L42.9879 170.064ZM42.9159 171.672L43.0335 172.665L43.8769 172.565L43.9149 171.717L42.9159 171.672ZM37.8519 172.272L37.7342 171.279L36.9572 171.371L36.8597 172.147L37.8519 172.272ZM37.2279 177.24L36.2357 177.115L36.0931 178.251L37.2373 178.24L37.2279 177.24ZM42.3399 177.192L43.3383 177.137L43.2854 176.183L42.3305 176.192L42.3399 177.192ZM42.4599 179.352L42.3849 180.349L43.5216 180.435L43.4583 179.297L42.4599 179.352ZM37.0359 178.944L37.1109 177.947L36.158 177.875L36.0431 178.824L37.0359 178.944ZM36.3879 184.296L35.3951 184.176L35.2426 185.435L36.503 185.289L36.3879 184.296ZM43.0119 183.528L44.0111 183.567L44.0564 182.4L42.8967 182.535L43.0119 183.528ZM42.8929 185L33.5089 185.216L33.5549 187.216L42.9389 187L42.8929 185ZM34.5293 186.145L33.4013 170.329L31.4064 170.471L32.5344 186.287L34.5293 186.145ZM32.4356 171.399L43.0196 171.063L42.9561 169.065L32.3721 169.401L32.4356 171.399ZM41.9889 170.019L41.9169 171.627L43.9149 171.717L43.9869 170.109L41.9889 170.019ZM42.7982 170.679L37.7342 171.279L37.9695 173.265L43.0335 172.665L42.7982 170.679ZM36.8597 172.147L36.2357 177.115L38.2201 177.365L38.8441 172.397L36.8597 172.147ZM37.2373 178.24L42.3493 178.192L42.3305 176.192L37.2185 176.24L37.2373 178.24ZM41.3414 177.247L41.4614 179.407L43.4583 179.297L43.3383 177.137L41.3414 177.247ZM42.5349 178.355L37.1109 177.947L36.9609 179.941L42.3849 180.349L42.5349 178.355ZM36.0431 178.824L35.3951 184.176L37.3806 184.416L38.0286 179.064L36.0431 178.824ZM36.503 185.289L43.127 184.521L42.8967 182.535L36.2727 183.303L36.503 185.289ZM42.0126 183.489L41.9166 185.961L43.9151 186.039L44.0111 183.567L42.0126 183.489ZM48.6631 186.36L47.9467 187.058L48.0646 187.179L48.2159 187.254L48.6631 186.36ZM47.2231 183.648L46.2635 183.929L46.2671 183.941L47.2231 183.648ZM47.7991 175.44L47.0331 174.797L47.0264 174.805L47.7991 175.44ZM55.0711 174.768L54.6997 175.696L56.1796 176.288L56.0687 174.698L55.0711 174.768ZM54.7111 169.608L54.5587 168.62L53.6495 168.76L53.7136 169.678L54.7111 169.608ZM59.8471 168.816L60.8432 168.904L60.9559 167.633L59.6947 167.828L59.8471 168.816ZM58.3111 186.144L58.4017 187.14L59.2335 187.064L59.3072 186.232L58.3111 186.144ZM55.9351 186.36L54.938 186.435L55.0145 187.448L56.0257 187.356L55.9351 186.36ZM55.6231 182.232L56.6203 182.157L56.5504 181.232H55.6231V182.232ZM55.4311 182.232V181.232H54.7712L54.5117 181.839L55.4311 182.232ZM51.1111 175.872L50.637 174.992L50.2199 175.216L50.1295 175.681L51.1111 175.872ZM51.2551 184.608L50.3153 184.95L50.5985 185.728L51.4163 185.595L51.2551 184.608ZM53.7271 182.952L54.4759 183.615L54.4797 183.611L53.7271 182.952ZM54.8311 180.768L53.8793 180.461L53.8769 180.469L53.8746 180.476L54.8311 180.768ZM55.2391 176.4L56.2372 176.338L56.2096 175.896L55.8638 175.619L55.2391 176.4ZM49.6231 185.552C49.3438 185.552 49.1884 185.505 49.1103 185.466L48.2159 187.254C48.6499 187.471 49.1345 187.552 49.6231 187.552V185.552ZM49.3796 185.662C48.9388 185.21 48.5212 184.47 48.1792 183.355L46.2671 183.941C46.6611 185.226 47.2034 186.294 47.9467 187.058L49.3796 185.662ZM48.1827 183.367C47.8618 182.272 47.6951 181.033 47.6951 179.64H45.6951C45.6951 181.191 45.8805 182.624 46.2636 183.929L48.1827 183.367ZM47.6951 179.64C47.6951 177.83 48.0513 176.708 48.5719 176.075L47.0264 174.805C46.075 175.964 45.6951 177.642 45.6951 179.64H47.6951ZM48.5651 176.083C49.0403 175.517 49.9739 175.096 51.6871 175.096V173.096C49.7204 173.096 48.062 173.571 47.0332 174.797L48.5651 176.083ZM51.6871 175.096C52.6882 175.096 53.6905 175.293 54.6997 175.696L55.4425 173.84C54.2118 173.347 52.9581 173.096 51.6871 173.096V175.096ZM56.0687 174.698L55.7087 169.538L53.7136 169.678L54.0736 174.838L56.0687 174.698ZM54.8635 170.596L59.9995 169.804L59.6947 167.828L54.5587 168.62L54.8635 170.596ZM58.851 168.728L57.315 186.056L59.3072 186.232L60.8432 168.904L58.851 168.728ZM58.2206 185.148L55.8446 185.364L56.0257 187.356L58.4017 187.14L58.2206 185.148ZM56.9323 186.285L56.6203 182.157L54.626 182.307L54.938 186.435L56.9323 186.285ZM55.6231 181.232H55.4311V183.232H55.6231V181.232ZM54.5117 181.839C53.945 183.164 53.2483 184.082 52.4583 184.67C51.6792 185.249 50.7495 185.552 49.6231 185.552V187.552C51.1368 187.552 52.495 187.135 53.6519 186.274C54.798 185.422 55.6853 184.18 56.3505 182.625L54.5117 181.839ZM52.6231 174.536C51.9067 174.536 51.2311 174.672 50.637 174.992L51.5852 176.752C51.8232 176.624 52.1555 176.536 52.6231 176.536V174.536ZM50.1295 175.681C49.8927 176.899 49.7751 178.155 49.7751 179.448H51.7751C51.7751 178.277 51.8816 177.149 52.0927 176.063L50.1295 175.681ZM49.7751 179.448C49.7751 181.989 49.9265 183.881 50.3153 184.95L52.1949 184.266C51.9437 183.575 51.7751 182.027 51.7751 179.448H49.7751ZM51.4163 185.595C52.5333 185.413 53.5498 184.661 54.4759 183.615L52.9784 182.289C52.1765 183.195 51.5449 183.547 51.094 183.621L51.4163 185.595ZM54.4797 183.611C55.053 182.955 55.4755 182.083 55.7876 181.06L53.8746 180.476C53.6108 181.341 53.2973 181.925 52.9745 182.293L54.4797 183.611ZM55.783 181.075C56.1251 180.012 56.2871 178.825 56.2871 177.528H54.2871C54.2871 178.663 54.1451 179.636 53.8793 180.461L55.783 181.075ZM56.2871 177.528C56.2871 177.255 56.2694 176.853 56.2372 176.338L54.2411 176.462C54.2729 176.971 54.2871 177.321 54.2871 177.528H56.2871ZM55.8638 175.619C54.9468 174.885 53.8476 174.536 52.6231 174.536V176.536C53.4467 176.536 54.0915 176.763 54.6144 177.181L55.8638 175.619ZM70.0033 183.192L69.2112 182.581L69.2094 182.584L70.0033 183.192ZM71.2273 180.696L70.2571 180.453L70.2571 180.453L71.2273 180.696ZM71.2753 174.48L71.1228 173.492L70.1859 173.636L70.2802 174.58L71.2753 174.48ZM76.4113 173.688L77.4037 173.81L77.5655 172.498L76.2588 172.7L76.4113 173.688ZM74.8753 186.144L74.9658 187.14L75.769 187.067L75.8677 186.266L74.8753 186.144ZM72.4993 186.36L71.5047 186.465L71.608 187.445L72.5898 187.356L72.4993 186.36ZM72.0193 181.8L73.0138 181.695L72.9195 180.8H72.0193V181.8ZM71.8513 181.8V180.8H71.1574L70.9145 181.45L71.8513 181.8ZM65.2273 186.36L64.455 186.995L64.59 187.159L64.78 187.254L65.2273 186.36ZM63.5473 181.32L62.5553 181.446L62.5554 181.447L63.5473 181.32ZM63.0913 174.192L63.0165 173.195L62.0913 173.264V174.192H63.0913ZM67.8913 173.832L68.886 173.934L69.0083 172.745L67.8165 172.835L67.8913 173.832ZM67.8193 184.608L66.8303 184.756L66.9888 185.813L68.0324 185.585L67.8193 184.608ZM70.7953 183.803C71.4671 182.931 71.9383 181.975 72.1974 180.939L70.2571 180.453C70.0682 181.209 69.7234 181.917 69.2112 182.581L70.7953 183.803ZM72.1974 180.939C72.4339 179.993 72.5633 179.131 72.5633 178.368H70.5633C70.5633 178.917 70.4686 179.607 70.2571 180.453L72.1974 180.939ZM72.5633 178.368C72.5633 177.638 72.4616 176.294 72.2703 174.38L70.2802 174.58C70.4729 176.506 70.5633 177.754 70.5633 178.368H72.5633ZM71.4277 175.468L76.5637 174.676L76.2588 172.7L71.1228 173.492L71.4277 175.468ZM75.4188 173.566L73.8828 186.022L75.8677 186.266L77.4037 173.81L75.4188 173.566ZM74.7847 185.148L72.4087 185.364L72.5898 187.356L74.9658 187.14L74.7847 185.148ZM73.4938 186.255L73.0138 181.695L71.0247 181.905L71.5047 186.465L73.4938 186.255ZM72.0193 180.8H71.8513V182.8H72.0193V180.8ZM70.9145 181.45C70.3615 182.93 69.6761 183.951 68.9045 184.598C68.1505 185.231 67.2614 185.552 66.1873 185.552V187.552C67.7051 187.552 69.056 187.081 70.19 186.13C71.3065 185.193 72.157 183.838 72.788 182.15L70.9145 181.45ZM66.1873 185.552C65.9079 185.552 65.7525 185.505 65.6745 185.466L64.78 187.254C65.214 187.471 65.6986 187.552 66.1873 187.552V185.552ZM65.9995 185.725C65.3676 184.957 64.8367 183.51 64.5391 181.193L62.5554 181.447C62.8658 183.866 63.4549 185.779 64.455 186.995L65.9995 185.725ZM64.5392 181.194C64.2405 178.851 64.0913 176.517 64.0913 174.192H62.0913C62.0913 176.603 62.246 179.021 62.5553 181.446L64.5392 181.194ZM63.166 175.189L67.966 174.829L67.8165 172.835L63.0165 173.195L63.166 175.189ZM66.8965 173.73C66.6078 176.537 66.4593 178.675 66.4593 180.12H68.4593C68.4593 178.781 68.5987 176.727 68.886 173.934L66.8965 173.73ZM66.4593 180.12C66.4593 181.569 66.5841 183.115 66.8303 184.756L68.8082 184.46C68.5744 182.901 68.4593 181.455 68.4593 180.12H66.4593ZM68.0324 185.585C69.1562 185.34 70.0854 184.729 70.7971 183.8L69.2094 182.584C68.7691 183.159 68.2423 183.492 67.6061 183.631L68.0324 185.585ZM80.7416 186.528L80.1813 187.356L80.3797 187.491L80.6175 187.52L80.7416 186.528ZM79.4216 184.896L78.5045 185.295L78.5098 185.307L78.5154 185.319L79.4216 184.896ZM80.0936 180.384L79.5842 179.523L79.5764 179.528L80.0936 180.384ZM86.7896 179.856L86.6562 180.847L87.899 181.014L87.7855 179.765L86.7896 179.856ZM86.7416 179.328L87.7375 179.237L87.7366 179.228L86.7416 179.328ZM85.8296 177.816L85.2529 178.633L85.261 178.639L85.2693 178.644L85.8296 177.816ZM81.1976 178.032L80.2406 178.322L80.6193 179.57L81.7261 178.881L81.1976 178.032ZM80.1416 174.552L79.7646 173.626L78.9198 173.97L79.1846 174.842L80.1416 174.552ZM89.0216 174.912L88.4059 175.7L88.4137 175.706L89.0216 174.912ZM90.5096 179.52L89.5196 179.379L89.5167 179.399L89.5147 179.419L90.5096 179.52ZM89.8376 186.144L89.9281 187.14L90.7492 187.065L90.8325 186.245L89.8376 186.144ZM87.4616 186.36L86.4669 186.463L86.5685 187.445L87.5521 187.356L87.4616 186.36ZM87.1016 182.88L88.0963 182.777L88.0035 181.88H87.1016V182.88ZM86.9096 182.88V181.88H86.2759L86.0053 182.453L86.9096 182.88ZM84.6536 185.592L85.2083 186.424L85.2178 186.418L84.6536 185.592ZM86.8856 180.864L87.8324 181.186L88.2725 179.89L86.9044 179.864L86.8856 180.864ZM85.6136 180.84L85.6324 179.84L85.623 179.84H85.6136V180.84ZM83.0216 181.008L82.8572 180.022L82.3549 180.105L82.1271 180.561L83.0216 181.008ZM83.1416 183.864L82.4345 184.571L82.7947 184.931L83.2979 184.852L83.1416 183.864ZM81.3416 185.552C81.0761 185.552 80.9283 185.544 80.8656 185.536L80.6175 187.52C80.8109 187.544 81.063 187.552 81.3416 187.552V185.552ZM81.3019 185.7C80.9363 185.452 80.6033 185.064 80.3277 184.473L78.5154 185.319C78.9118 186.168 79.4588 186.868 80.1813 187.356L81.3019 185.7ZM80.3386 184.497C80.072 183.884 79.9416 183.26 79.9416 182.616H77.9416C77.9416 183.54 78.1311 184.436 78.5045 185.295L80.3386 184.497ZM79.9416 182.616C79.9416 181.883 80.1895 181.494 80.6107 181.24L79.5764 179.528C78.4616 180.202 77.9416 181.301 77.9416 182.616H79.9416ZM80.6029 181.245C80.8427 181.103 81.2584 180.956 81.9155 180.849C82.5614 180.744 83.3822 180.688 84.3896 180.688V178.688C83.3169 178.688 82.3818 178.748 81.5956 178.875C80.8207 179 80.1284 179.201 79.5842 179.523L80.6029 181.245ZM84.3896 180.688C85.109 180.688 85.8643 180.74 86.6562 180.847L86.923 178.865C86.0508 178.748 85.2061 178.688 84.3896 178.688V180.688ZM87.7855 179.765L87.7375 179.237L85.7457 179.419L85.7937 179.947L87.7855 179.765ZM87.7366 179.228C87.6423 178.286 87.1738 177.518 86.3899 176.988L85.2693 178.644C85.5733 178.85 85.7128 179.09 85.7465 179.428L87.7366 179.228ZM86.4062 176.999C85.6525 176.467 84.7395 176.24 83.7416 176.24V178.24C84.4396 178.24 84.9186 178.397 85.2529 178.633L86.4062 176.999ZM83.7416 176.24C82.6757 176.24 81.647 176.574 80.669 177.183L81.7261 178.881C82.4441 178.434 83.1115 178.24 83.7416 178.24V176.24ZM82.1545 177.742L81.0985 174.262L79.1846 174.842L80.2406 178.322L82.1545 177.742ZM80.5185 175.478C81.7549 174.975 83.1914 174.712 84.8456 174.712V172.712C82.9798 172.712 81.2803 173.009 79.7646 173.626L80.5185 175.478ZM84.8456 174.712C86.4609 174.712 87.6109 175.079 88.4059 175.7L89.6372 174.124C88.3842 173.145 86.7502 172.712 84.8456 172.712V174.712ZM88.4137 175.706C89.1191 176.246 89.5576 177.137 89.5576 178.608H91.5576C91.5576 176.719 90.9721 175.146 89.6295 174.118L88.4137 175.706ZM89.5576 178.608C89.5576 178.972 89.5419 179.223 89.5196 179.379L91.4995 179.661C91.5412 179.369 91.5576 179.012 91.5576 178.608H89.5576ZM89.5147 179.419L88.8427 186.043L90.8325 186.245L91.5045 179.621L89.5147 179.419ZM89.747 185.148L87.371 185.364L87.5521 187.356L89.9281 187.14L89.747 185.148ZM88.4563 186.257L88.0963 182.777L86.1069 182.983L86.4669 186.463L88.4563 186.257ZM87.1016 181.88H86.9096V183.88H87.1016V181.88ZM86.0053 182.453C85.5297 183.46 84.8888 184.22 84.0894 184.766L85.2178 186.418C86.3383 185.652 87.2014 184.604 87.8138 183.307L86.0053 182.453ZM84.0989 184.76C83.3166 185.281 82.409 185.552 81.3416 185.552V187.552C82.7701 187.552 84.0705 187.183 85.2083 186.424L84.0989 184.76ZM86.9044 179.864L85.6324 179.84L85.5947 181.84L86.8667 181.864L86.9044 179.864ZM85.6136 179.84C84.5289 179.84 83.6045 179.897 82.8572 180.022L83.186 181.994C83.7826 181.895 84.5862 181.84 85.6136 181.84V179.84ZM82.1271 180.561C81.8611 181.093 81.6856 181.649 81.6856 182.208H83.6856C83.6856 182.063 83.734 181.819 83.916 181.455L82.1271 180.561ZM81.6856 182.208C81.6856 182.652 81.7463 183.085 81.8717 183.503L83.7874 182.929C83.7208 182.707 83.6856 182.468 83.6856 182.208H81.6856ZM81.8717 183.503C81.9736 183.843 82.1338 184.27 82.4345 184.571L83.8487 183.157C83.8783 183.187 83.8924 183.208 83.8942 183.211C83.8964 183.214 83.8913 183.206 83.8806 183.184C83.8582 183.138 83.8257 183.056 83.7874 182.929L81.8717 183.503ZM83.2979 184.852C84.3928 184.678 85.3568 184.296 86.1429 183.666C86.933 183.033 87.4907 182.192 87.8324 181.186L85.9387 180.542C85.7044 181.232 85.3501 181.739 84.8923 182.106C84.4303 182.476 83.8104 182.746 82.9852 182.876L83.2979 184.852ZM98.7434 179.256L99.5455 179.853L99.5514 179.845L98.7434 179.256ZM97.5194 183.432L96.5273 183.307L96.527 183.309L97.5194 183.432ZM97.1834 186.144L97.274 187.14L98.0767 187.067L98.1758 186.267L97.1834 186.144ZM94.8074 186.36L93.8127 186.462L93.9138 187.445L94.898 187.356L94.8074 186.36ZM93.5834 174.456L93.431 173.468L92.4914 173.613L92.5887 174.558L93.5834 174.456ZM98.7194 173.664L99.7117 173.788L99.876 172.474L98.567 172.676L98.7194 173.664ZM98.2394 177.504L97.2472 177.38L97.1067 178.504H98.2394V177.504ZM98.4074 177.504V178.504H99.0452L99.3142 177.926L98.4074 177.504ZM103.303 173.112L104.295 173.242L104.457 172.006L103.215 172.116L103.303 173.112ZM102.631 178.224L102.498 179.215L103.492 179.349L103.623 178.354L102.631 178.224ZM101.215 177.104C99.8609 177.104 98.7129 177.601 97.9354 178.667L99.5514 179.845C99.894 179.375 100.394 179.104 101.215 179.104V177.104ZM97.9414 178.659C97.213 179.637 96.7849 181.262 96.5273 183.307L98.5116 183.557C98.7659 181.538 99.1539 180.379 99.5455 179.853L97.9414 178.659ZM96.527 183.309L96.191 186.021L98.1758 186.267L98.5119 183.555L96.527 183.309ZM97.0929 185.148L94.7169 185.364L94.898 187.356L97.274 187.14L97.0929 185.148ZM95.8022 186.258L94.5782 174.354L92.5887 174.558L93.8127 186.462L95.8022 186.258ZM93.7358 175.444L98.8718 174.652L98.567 172.676L93.431 173.468L93.7358 175.444ZM97.7272 173.54L97.2472 177.38L99.2317 177.628L99.7117 173.788L97.7272 173.54ZM98.2394 178.504H98.4074V176.504H98.2394V178.504ZM99.3142 177.926C100.529 175.314 101.927 174.238 103.392 174.108L103.215 172.116C100.712 172.338 98.8461 174.19 97.5007 177.082L99.3142 177.926ZM102.312 172.982L101.64 178.094L103.623 178.354L104.295 173.242L102.312 172.982ZM102.765 177.233C102.155 177.151 101.632 177.104 101.215 177.104V179.104C101.502 179.104 101.924 179.137 102.498 179.215L102.765 177.233ZM107.257 186.36L106.54 187.058L106.658 187.179L106.81 187.254L107.257 186.36ZM105.817 183.648L104.857 183.929L104.861 183.941L105.817 183.648ZM106.393 175.44L105.627 174.797L105.62 174.805L106.393 175.44ZM113.665 174.768L113.293 175.696L114.773 176.288L114.662 174.698L113.665 174.768ZM113.305 169.608L113.152 168.62L112.243 168.76L112.307 169.678L113.305 169.608ZM118.441 168.816L119.437 168.904L119.55 167.633L118.288 167.828L118.441 168.816ZM116.905 186.144L116.995 187.14L117.827 187.064L117.901 186.232L116.905 186.144ZM114.529 186.36L113.532 186.435L113.608 187.448L114.619 187.356L114.529 186.36ZM114.217 182.232L115.214 182.157L115.144 181.232H114.217V182.232ZM114.025 182.232V181.232H113.365L113.105 181.839L114.025 182.232ZM109.705 175.872L109.231 174.992L108.814 175.216L108.723 175.681L109.705 175.872ZM109.849 184.608L108.909 184.95L109.192 185.728L110.01 185.595L109.849 184.608ZM112.321 182.952L113.07 183.615L113.073 183.611L112.321 182.952ZM113.425 180.768L112.473 180.461L112.471 180.469L112.468 180.476L113.425 180.768ZM113.833 176.4L114.831 176.338L114.803 175.896L114.458 175.619L113.833 176.4ZM108.217 185.552C107.938 185.552 107.782 185.505 107.704 185.466L106.81 187.254C107.244 187.471 107.728 187.552 108.217 187.552V185.552ZM107.973 185.662C107.533 185.21 107.115 184.47 106.773 183.355L104.861 183.941C105.255 185.226 105.797 186.294 106.54 187.058L107.973 185.662ZM106.776 183.367C106.456 182.272 106.289 181.033 106.289 179.64H104.289C104.289 181.191 104.474 182.624 104.857 183.929L106.776 183.367ZM106.289 179.64C106.289 177.83 106.645 176.708 107.166 176.075L105.62 174.805C104.669 175.964 104.289 177.642 104.289 179.64H106.289ZM107.159 176.083C107.634 175.517 108.568 175.096 110.281 175.096V173.096C108.314 173.096 106.656 173.571 105.627 174.797L107.159 176.083ZM110.281 175.096C111.282 175.096 112.284 175.293 113.293 175.696L114.036 173.84C112.806 173.347 111.552 173.096 110.281 173.096V175.096ZM114.662 174.698L114.302 169.538L112.307 169.678L112.667 174.838L114.662 174.698ZM113.457 170.596L118.593 169.804L118.288 167.828L113.152 168.62L113.457 170.596ZM117.445 168.728L115.909 186.056L117.901 186.232L119.437 168.904L117.445 168.728ZM116.814 185.148L114.438 185.364L114.619 187.356L116.995 187.14L116.814 185.148ZM115.526 186.285L115.214 182.157L113.22 182.307L113.532 186.435L115.526 186.285ZM114.217 181.232H114.025V183.232H114.217V181.232ZM113.105 181.839C112.539 183.164 111.842 184.082 111.052 184.67C110.273 185.249 109.343 185.552 108.217 185.552V187.552C109.731 187.552 111.089 187.135 112.246 186.274C113.392 185.422 114.279 184.18 114.944 182.625L113.105 181.839ZM111.217 174.536C110.5 174.536 109.825 174.672 109.231 174.992L110.179 176.752C110.417 176.624 110.749 176.536 111.217 176.536V174.536ZM108.723 175.681C108.486 176.899 108.369 178.155 108.369 179.448H110.369C110.369 178.277 110.475 177.149 110.686 176.063L108.723 175.681ZM108.369 179.448C108.369 181.989 108.52 183.881 108.909 184.95L110.789 184.266C110.537 183.575 110.369 182.027 110.369 179.448H108.369ZM110.01 185.595C111.127 185.413 112.144 184.661 113.07 183.615L111.572 182.289C110.77 183.195 110.139 183.547 109.688 183.621L110.01 185.595ZM113.073 183.611C113.647 182.955 114.069 182.083 114.381 181.06L112.468 180.476C112.205 181.341 111.891 181.925 111.568 182.293L113.073 183.611ZM114.377 181.075C114.719 180.012 114.881 178.825 114.881 177.528H112.881C112.881 178.663 112.739 179.636 112.473 180.461L114.377 181.075ZM114.881 177.528C114.881 177.255 114.863 176.853 114.831 176.338L112.835 176.462C112.867 176.971 112.881 177.321 112.881 177.528H114.881ZM114.458 175.619C113.541 174.885 112.441 174.536 111.217 174.536V176.536C112.04 176.536 112.685 176.763 113.208 177.181L114.458 175.619ZM130.685 185.4L129.964 184.707L129.963 184.708L130.685 185.4ZM121.685 185.184L120.706 185.388L120.779 185.738L121.058 185.963L121.685 185.184ZM121.805 178.488L120.855 178.176L120.852 178.185L121.805 178.488ZM123.053 175.872L122.236 175.295L122.229 175.305L123.053 175.872ZM125.837 173.064L126.292 172.173L125.846 171.946L125.397 172.166L125.837 173.064ZM129.893 176.256L129.138 176.912L129.142 176.917L129.893 176.256ZM128.093 176.76L128.985 176.308L128.525 175.399L127.625 175.876L128.093 176.76ZM123.509 184.344H122.509V185.174L123.325 185.327L123.509 184.344ZM128.669 183.984L128.985 184.933L129.499 184.761L129.636 184.238L128.669 183.984ZM130.837 181.584C130.837 183.212 130.474 184.176 129.964 184.707L131.406 186.093C132.432 185.024 132.837 183.444 132.837 181.584H130.837ZM129.963 184.708C129.51 185.18 128.477 185.576 126.485 185.576V187.576C128.589 187.576 130.356 187.188 131.407 186.092L129.963 184.708ZM126.485 185.576C124.578 185.576 123.229 185.144 122.312 184.405L121.058 185.963C122.445 187.08 124.296 187.576 126.485 187.576V185.576ZM122.664 184.98C122.438 183.894 122.325 182.81 122.325 181.728H120.325C120.325 182.95 120.452 184.17 120.706 185.388L122.664 184.98ZM122.325 181.728C122.325 180.67 122.472 179.692 122.758 178.791L120.852 178.185C120.498 179.3 120.325 180.482 120.325 181.728H122.325ZM122.755 178.8C123.068 177.846 123.446 177.065 123.877 176.439L122.229 175.305C121.668 176.119 121.214 177.082 120.855 178.176L122.755 178.8ZM123.87 176.449C124.891 175.004 125.698 174.246 126.277 173.962L125.397 172.166C124.344 172.682 123.295 173.796 122.236 175.295L123.87 176.449ZM125.382 173.955C126.8 174.679 128.052 175.662 129.138 176.912L130.648 175.6C129.398 174.162 127.946 173.017 126.292 172.173L125.382 173.955ZM129.142 176.917C130.267 178.195 130.837 179.731 130.837 181.584H132.837C132.837 179.277 132.111 177.261 130.644 175.595L129.142 176.917ZM130.053 180.936C130.053 179.271 129.701 177.722 128.985 176.308L127.201 177.212C127.765 178.326 128.053 179.561 128.053 180.936H130.053ZM127.625 175.876C126.117 176.675 124.894 177.884 123.948 179.462L125.662 180.49C126.444 179.188 127.413 178.253 128.561 177.644L127.625 175.876ZM123.948 179.462C123.004 181.035 122.509 182.666 122.509 184.344H124.509C124.509 183.078 124.878 181.797 125.662 180.49L123.948 179.462ZM123.325 185.327C123.928 185.44 124.738 185.488 125.717 185.488V183.488C124.776 183.488 124.114 183.44 123.693 183.361L123.325 185.327ZM125.717 185.488C126.795 185.488 127.886 185.299 128.985 184.933L128.353 183.035C127.436 183.341 126.559 183.488 125.717 183.488V185.488ZM129.636 184.238C129.915 183.175 130.053 182.074 130.053 180.936H128.053C128.053 181.91 127.935 182.841 127.702 183.73L129.636 184.238ZM140.954 186L139.992 185.729L139.685 186.821L140.806 186.989L140.954 186ZM145.442 170.04L145.504 169.042L144.698 168.992L144.48 169.769L145.442 170.04ZM151.25 170.4L152.231 170.204L152.08 169.45L151.312 169.402L151.25 170.4ZM154.37 186L154.535 186.986L155.554 186.817L155.351 185.804L154.37 186ZM152.21 186.36L151.287 186.744L151.592 187.477L152.375 187.346L152.21 186.36ZM150.554 182.376L151.478 181.992L151.198 181.319L150.472 181.379L150.554 182.376ZM144.17 182.904L144.088 181.907L143.364 181.967L143.197 182.674L144.17 182.904ZM143.354 186.36L143.206 187.349L144.116 187.485L144.328 186.59L143.354 186.36ZM146.498 173.064V172.064H145.708L145.525 172.833L146.498 173.064ZM144.602 181.056L143.629 180.825L143.34 182.045L144.594 182.056L144.602 181.056ZM150.026 181.104L150.018 182.104L151.53 182.117L150.95 180.721L150.026 181.104ZM146.69 173.064L147.614 172.681L147.358 172.064H146.69V173.064ZM141.917 186.271L146.405 170.311L144.48 169.769L139.992 185.729L141.917 186.271ZM145.381 171.038L151.189 171.398L151.312 169.402L145.504 169.042L145.381 171.038ZM150.27 170.596L153.39 186.196L155.351 185.804L152.231 170.204L150.27 170.596ZM154.206 185.014L152.046 185.374L152.375 187.346L154.535 186.986L154.206 185.014ZM153.134 185.976L151.478 181.992L149.631 182.76L151.287 186.744L153.134 185.976ZM150.472 181.379L144.088 181.907L144.253 183.901L150.637 183.373L150.472 181.379ZM143.197 182.674L142.381 186.13L144.328 186.59L145.144 183.134L143.197 182.674ZM143.503 185.371L141.103 185.011L140.806 186.989L143.206 187.349L143.503 185.371ZM145.525 172.833L143.629 180.825L145.575 181.287L147.471 173.295L145.525 172.833ZM144.594 182.056L150.018 182.104L150.035 180.104L144.611 180.056L144.594 182.056ZM150.95 180.721L147.614 172.681L145.767 173.447L149.103 181.487L150.95 180.721ZM146.69 172.064H146.498V174.064H146.69V172.064ZM160.458 173.688L161.443 173.518L161.276 172.55L160.305 172.7L160.458 173.688ZM162.042 182.88L161.056 183.05L161.199 183.88H162.042V182.88ZM162.234 182.88V183.88H162.95L163.18 183.201L162.234 182.88ZM165.33 173.76L165.592 172.795L164.685 172.549L164.383 173.439L165.33 173.76ZM167.274 174.288L168.203 174.658L168.617 173.617L167.536 173.323L167.274 174.288ZM162.594 186.048L162.752 187.035L163.313 186.945L163.523 186.418L162.594 186.048ZM160.65 186.36L159.737 186.769L160.051 187.469L160.808 187.347L160.65 186.36ZM155.322 174.48L155.169 173.492L153.872 173.692L154.409 174.889L155.322 174.48ZM159.472 173.858L161.056 183.05L163.027 182.71L161.443 173.518L159.472 173.858ZM162.042 183.88H162.234V181.88H162.042V183.88ZM163.18 183.201L166.276 174.081L164.383 173.439L161.287 182.559L163.18 183.201ZM165.067 174.725L167.011 175.253L167.536 173.323L165.592 172.795L165.067 174.725ZM166.344 173.918L161.664 185.678L163.523 186.418L168.203 174.658L166.344 173.918ZM162.435 185.061L160.491 185.373L160.808 187.347L162.752 187.035L162.435 185.061ZM161.562 185.951L156.234 174.071L154.409 174.889L159.737 186.769L161.562 185.951ZM155.474 175.468L160.61 174.676L160.305 172.7L155.169 173.492L155.474 175.468ZM170.888 186.36L169.894 186.462L169.995 187.445L170.979 187.356L170.888 186.36ZM169.664 174.48L169.512 173.492L168.572 173.637L168.67 174.582L169.664 174.48ZM174.8 173.688L175.793 173.81L175.955 172.498L174.648 172.7L174.8 173.688ZM173.264 186.144L173.355 187.14L174.158 187.067L174.257 186.266L173.264 186.144ZM170.408 171.816L169.689 172.51L169.701 172.523L169.714 172.536L170.408 171.816ZM170.408 168.672L169.701 167.965L169.701 167.965L170.408 168.672ZM173.552 168.672L172.833 169.366L172.845 169.379L172.858 169.392L173.552 168.672ZM173.552 171.816L172.845 171.109L172.845 171.109L173.552 171.816ZM171.883 186.258L170.659 174.378L168.67 174.582L169.894 186.462L171.883 186.258ZM169.817 175.468L174.953 174.676L174.648 172.7L169.512 173.492L169.817 175.468ZM173.808 173.566L172.272 186.022L174.257 186.266L175.793 173.81L173.808 173.566ZM173.174 185.148L170.798 185.364L170.979 187.356L173.355 187.14L173.174 185.148ZM171.128 171.122C170.871 170.855 170.76 170.574 170.76 170.232H168.76C168.76 171.106 169.082 171.881 169.689 172.51L171.128 171.122ZM170.76 170.232C170.76 169.891 170.87 169.625 171.115 169.379L169.701 167.965C169.083 168.583 168.76 169.357 168.76 170.232H170.76ZM171.115 169.379C171.385 169.11 171.662 169 171.992 169V167C171.107 167 170.328 167.338 169.701 167.965L171.115 169.379ZM171.992 169C172.322 169 172.584 169.108 172.833 169.366L174.272 167.978C173.657 167.34 172.879 167 171.992 167V169ZM172.858 169.392C173.116 169.64 173.224 169.903 173.224 170.232H175.224C175.224 169.345 174.885 168.568 174.247 167.952L172.858 169.392ZM173.224 170.232C173.224 170.563 173.115 170.84 172.845 171.109L174.259 172.523C174.886 171.896 175.224 171.117 175.224 170.232H173.224ZM172.845 171.109C172.6 171.354 172.334 171.464 171.992 171.464V173.464C172.867 173.464 173.641 173.142 174.259 172.523L172.845 171.109ZM171.992 171.464C171.65 171.464 171.369 171.353 171.103 171.096L169.714 172.536C170.344 173.143 171.119 173.464 171.992 173.464V171.464ZM179.373 186.36L178.375 186.433L178.45 187.448L179.463 187.356L179.373 186.36ZM178.149 169.608L177.996 168.62L177.084 168.76L177.151 169.681L178.149 169.608ZM183.285 168.816L184.281 168.904L184.394 167.633L183.132 167.828L183.285 168.816ZM181.749 186.144L181.839 187.14L182.671 187.064L182.745 186.232L181.749 186.144ZM180.37 186.287L179.146 169.535L177.151 169.681L178.375 186.433L180.37 186.287ZM178.301 170.596L183.437 169.804L183.132 167.828L177.996 168.62L178.301 170.596ZM182.289 168.728L180.753 186.056L182.745 186.232L184.281 168.904L182.289 168.728ZM181.658 185.148L179.282 185.364L179.463 187.356L181.839 187.14L181.658 185.148ZM190.641 173.064L191.013 172.136L190.573 171.959L190.157 172.189L190.641 173.064ZM195.417 181.464L196.035 182.25L196.037 182.248L195.417 181.464ZM188.769 181.992L188.997 181.018L188.163 180.823L187.842 181.617L188.769 181.992ZM188.313 184.344H187.313V185.22L188.181 185.335L188.313 184.344ZM195.465 183.696L196.42 183.401L196.112 182.402L195.127 182.755L195.465 183.696ZM196.185 186.024L196.486 186.978L197.434 186.679L197.14 185.729L196.185 186.024ZM186.537 185.16L185.562 185.38L185.64 185.73L185.924 185.95L186.537 185.16ZM187.473 176.496L186.599 176.011L186.595 176.018L187.473 176.496ZM189.249 180.864L188.38 180.369L187.599 181.74L189.172 181.861L189.249 180.864ZM193.713 180.552L193.915 181.531L194.593 181.392L194.701 180.708L193.713 180.552ZM192.993 176.88L193.851 176.366L193.311 175.466L192.438 176.048L192.993 176.88ZM190.269 173.992C194.089 175.523 195.449 177.217 195.449 178.848H197.449C197.449 175.871 194.937 173.709 191.013 172.136L190.269 173.992ZM195.449 178.848C195.449 179.862 195.165 180.389 194.797 180.68L196.037 182.248C197.046 181.451 197.449 180.234 197.449 178.848H195.449ZM194.799 180.678C194.629 180.811 194.312 180.964 193.765 181.079C193.227 181.193 192.527 181.256 191.649 181.256V183.256C192.611 183.256 193.459 183.187 194.177 183.037C194.886 182.888 195.533 182.645 196.035 182.25L194.799 180.678ZM191.649 181.256C190.523 181.256 189.647 181.17 188.997 181.018L188.541 182.966C189.396 183.166 190.439 183.256 191.649 183.256V181.256ZM187.842 181.617C187.49 182.489 187.313 183.4 187.313 184.344H189.313C189.313 183.656 189.441 182.999 189.696 182.367L187.842 181.617ZM188.181 185.335C188.954 185.438 189.816 185.488 190.761 185.488V183.488C189.883 183.488 189.112 183.442 188.445 183.353L188.181 185.335ZM190.761 185.488C192.533 185.488 194.216 185.207 195.803 184.637L195.127 182.755C193.771 183.241 192.317 183.488 190.761 183.488V185.488ZM194.51 183.991L195.23 186.319L197.14 185.729L196.42 183.401L194.51 183.991ZM195.885 185.07C194.83 185.402 193.622 185.576 192.249 185.576V187.576C193.788 187.576 195.204 187.382 196.486 186.978L195.885 185.07ZM192.249 185.576C189.741 185.576 188.106 185.112 187.15 184.37L185.924 185.95C187.4 187.096 189.573 187.576 192.249 187.576V185.576ZM187.513 184.94C187.27 183.865 187.153 182.868 187.153 181.944H185.153C185.153 183.036 185.292 184.183 185.562 185.38L187.513 184.94ZM187.153 181.944C187.153 180.079 187.559 178.43 188.351 176.974L186.595 176.018C185.628 177.794 185.153 179.777 185.153 181.944H187.153ZM188.348 176.981C189.182 175.476 190.119 174.495 191.125 173.939L190.157 172.189C188.731 172.977 187.556 174.284 186.599 176.011L188.348 176.981ZM189.172 181.861C189.427 181.881 189.991 181.888 190.809 181.888V179.888C189.963 179.888 189.487 179.879 189.326 179.867L189.172 181.861ZM190.809 181.888C191.742 181.888 192.78 181.765 193.915 181.531L193.511 179.573C192.471 179.787 191.572 179.888 190.809 179.888V181.888ZM194.701 180.708C194.757 180.353 194.785 179.997 194.785 179.64H192.785C192.785 179.891 192.765 180.143 192.725 180.396L194.701 180.708ZM194.785 179.64C194.785 178.486 194.465 177.39 193.851 176.366L192.136 177.394C192.577 178.13 192.785 178.874 192.785 179.64H194.785ZM192.438 176.048C190.729 177.187 189.372 178.629 188.38 180.369L190.118 181.359C190.95 179.899 192.089 178.685 193.548 177.712L192.438 176.048ZM202.453 172.488L203.01 171.658L202.407 171.253L201.836 171.701L202.453 172.488ZM206.389 175.128L206.928 175.97L208.214 175.148L206.946 174.298L206.389 175.128ZM204.805 181.272L203.979 181.835L203.985 181.844L204.805 181.272ZM201.589 188.592L200.788 189.19L201.245 189.803L201.956 189.522L201.589 188.592ZM200.533 187.176L200.055 186.298L199.042 186.849L199.732 187.774L200.533 187.176ZM200.821 181.92L200.075 182.586L200.076 182.586L200.821 181.92ZM199.717 180.216L198.819 180.655L198.819 180.655L199.717 180.216ZM200.213 178.104C200.213 176.46 201.064 174.85 203.071 173.275L201.836 171.701C199.523 173.518 198.213 175.652 198.213 178.104H200.213ZM201.896 173.318L205.832 175.958L206.946 174.298L203.01 171.658L201.896 173.318ZM205.851 174.286C203.988 175.477 202.725 176.931 202.725 178.704H204.725C204.725 177.981 205.239 177.051 206.928 175.97L205.851 174.286ZM202.725 178.704C202.725 179.677 203.236 180.745 203.979 181.835L205.632 180.709C204.935 179.687 204.725 179.043 204.725 178.704H202.725ZM203.985 181.844C204.713 182.889 204.909 183.488 204.909 183.744H206.909C206.909 182.816 206.37 181.767 205.626 180.7L203.985 181.844ZM204.909 183.744C204.909 185.24 203.934 186.592 201.223 187.662L201.956 189.522C205.005 188.32 206.909 186.44 206.909 183.744H204.909ZM202.391 187.994L201.335 186.578L199.732 187.774L200.788 189.19L202.391 187.994ZM201.012 188.054C202.355 187.323 203.429 186.305 203.429 184.896H201.429C201.429 185.151 201.24 185.653 200.055 186.298L201.012 188.054ZM203.429 184.896C203.429 183.712 202.658 182.474 201.567 181.254L200.076 182.586C201.129 183.766 201.429 184.512 201.429 184.896H203.429ZM201.567 181.254C201.242 180.89 200.922 180.404 200.616 179.777L198.819 180.655C199.185 181.404 199.6 182.054 200.075 182.586L201.567 181.254ZM200.616 179.777C200.342 179.217 200.213 178.662 200.213 178.104H198.213C198.213 178.986 198.42 179.839 198.819 180.655L200.616 179.777Z" fill="black" mask="url(#path-9-outside-2_4_2)"/>
</g>
</g>
<defs>
<filter id="filter0_d_4_2" x="34" y="44" width="171" height="126" filterUnits="userSpaceOnUse" color-interpolation-filters="sRGB">
<feFlood flood-opacity="0" result="BackgroundImageFix"/>
<feColorMatrix in="SourceAlpha" type="matrix" values="0 0 0 0 0 0 0 0 0 0 0 0 0 0 0 0 0 0 127 0" result="hardAlpha"/>
<feOffset dy="4"/>
<feGaussianBlur stdDeviation="2"/>
<feComposite in2="hardAlpha" operator="out"/>
<feColorMatrix type="matrix" values="0 0 0 0 0 0 0 0 0 0 0 0 0 0 0 0 0 0 0.25 0"/>
<feBlend mode="normal" in2="BackgroundImageFix" result="effect1_dropShadow_4_2"/>
<feBlend mode="normal" in="SourceGraphic" in2="effect1_dropShadow_4_2" result="shape"/>
</filter>
<linearGradient id="paint0_linear_4_2" x1="141.841" y1="72.1506" x2="141.841" y2="174.322" gradientUnits="userSpaceOnUse">
<stop stop-color="#6964E3"/>
<stop offset="1" stop-color="#E4BBDF"/>
</linearGradient>
<linearGradient id="paint1_linear_4_2" x1="141.424" y1="92.4205" x2="141.424" y2="143.216" gradientUnits="userSpaceOnUse">
<stop stop-color="#6964E3"/>
<stop offset="1" stop-color="#E4BBDF"/>
</linearGradient>
<linearGradient id="paint2_linear_4_2" x1="95.8118" y1="134" x2="95.8118" y2="161.685" gradientUnits="userSpaceOnUse">
<stop stop-color="#F1DDA6"/>
<stop offset="1" stop-color="#FFD850"/>
</linearGradient>
<linearGradient id="paint3_linear_4_2" x1="95.8118" y1="90" x2="95.8118" y2="117.685" gradientUnits="userSpaceOnUse">
<stop stop-color="#F1DDA6"/>
<stop offset="1" stop-color="#FFD850"/>
</linearGradient>
<linearGradient id="paint4_linear_4_2" x1="141.424" y1="56.9318" x2="141.424" y2="162" gradientUnits="userSpaceOnUse">
<stop stop-color="#726FD5"/>
<stop offset="1" stop-color="#E4BBDF"/>
</linearGradient>
<linearGradient id="paint5_linear_4_2" x1="141.424" y1="47" x2="141.424" y2="75.75" gradientUnits="userSpaceOnUse">
<stop stop-color="#726FD5"/>
<stop offset="1" stop-color="#E4BBDF"/>
</linearGradient>
<linearGradient id="paint6_linear_4_2" x1="95.8118" y1="44" x2="95.8118" y2="71.6846" gradientUnits="userSpaceOnUse">
<stop stop-color="#F1DDA6"/>
<stop offset="1" stop-color="#FFD850"/>
</linearGradient>
</defs>
</svg>
