<svg width="163" height="118" viewBox="0 0 163 118" fill="none" xmlns="http://www.w3.org/2000/svg">
<g id="LOGO">
<g id="A-DB">
<g id="bottom-db-disc">
<path id="bottom" d="M162.5 84.8964C162.5 87.235 160.983 89.5547 158.021 91.744C155.069 93.9261 150.765 95.9123 145.401 97.5891C134.681 100.941 119.839 103.021 103.424 103.021C87.0088 103.021 72.1675 100.941 61.4467 97.5891C56.0833 95.9123 51.7794 93.9261 48.8271 91.744C45.8651 89.5547 44.3481 87.235 44.3481 84.8964C44.3481 82.5579 45.8651 80.2382 48.8271 78.0488C51.7794 75.8667 56.0833 73.8805 61.4467 72.2038C72.1675 68.8522 87.0088 66.7714 103.424 66.7714C119.839 66.7714 134.681 68.8522 145.401 72.2038C150.765 73.8805 155.069 75.8667 158.021 78.0488C160.983 80.2382 162.5 82.5579 162.5 84.8964Z" fill="url(#paint0_linear_4_2)" stroke="black"/>
<path id="top" d="M162.5 63.9977C162.5 66.3363 160.983 68.656 158.021 70.8453C155.069 73.0275 150.765 75.0136 145.401 76.6904C134.681 80.042 119.839 82.1227 103.424 82.1227C87.0088 82.1227 72.1675 80.042 61.4467 76.6904C56.0833 75.0136 51.7794 73.0275 48.8271 70.8453C45.8651 68.656 44.3481 66.3363 44.3481 63.9977C44.3481 61.6592 45.8651 59.3395 48.8271 57.1501C51.7794 54.968 56.0833 52.9818 61.4467 51.3051C72.1675 47.9535 87.0088 45.8727 103.424 45.8727C119.839 45.8727 134.681 47.9535 145.401 51.3051C150.765 52.9818 155.069 54.968 158.021 57.1501C160.983 59.3395 162.5 61.6592 162.5 63.9977Z" fill="url(#paint1_linear_4_2)" stroke="black"/>
<rect id="bottom-menu" x="0.5" y="90.5" width="114.624" height="26.6846" rx="13.3423" fill="url(#paint2_linear_4_2)" stroke="#040404"/>
<rect id="middle-menu" x="0.5" y="46.5" width="114.624" height="26.6846" rx="13.3423" fill="url(#paint3_linear_4_2)" stroke="#040404"/>
<g id="top-db-disc">
<g id="Union">
<mask id="path-5-inside-1_4_2" fill="white">
<path fill-rule="evenodd" clip-rule="evenodd" d="M52.1887 12.9318C48.8858 12.9318 46.0313 14.8517 44.6803 17.6364H43.8481V21.2725V38.0227V38.2841V109.659C43.8481 114.266 47.5823 118 52.1887 118C56.7951 118 60.5294 114.266 60.5294 109.659V48.26C71.3655 50.9721 86.5783 52.6591 103.424 52.6591C120.27 52.6591 135.483 50.9721 146.319 48.26V109.659C146.319 114.266 150.053 118 154.659 118C159.266 118 163 114.266 163 109.659L163 38.2841V38.0227L163 21.2725C163 21.2687 163 21.2649 163 21.2611V17.6364H162.168C160.817 14.8517 157.962 12.9318 154.659 12.9318C151.356 12.9318 148.502 14.8517 147.151 17.6364H59.6972C58.3462 14.8517 55.4917 12.9318 52.1887 12.9318Z"/>
</mask>
<path fill-rule="evenodd" clip-rule="evenodd" d="M52.1887 12.9318C48.8858 12.9318 46.0313 14.8517 44.6803 17.6364H43.8481V21.2725V38.0227V38.2841V109.659C43.8481 114.266 47.5823 118 52.1887 118C56.7951 118 60.5294 114.266 60.5294 109.659V48.26C71.3655 50.9721 86.5783 52.6591 103.424 52.6591C120.27 52.6591 135.483 50.9721 146.319 48.26V109.659C146.319 114.266 150.053 118 154.659 118C159.266 118 163 114.266 163 109.659L163 38.2841V38.0227L163 21.2725C163 21.2687 163 21.2649 163 21.2611V17.6364H162.168C160.817 14.8517 157.962 12.9318 154.659 12.9318C151.356 12.9318 148.502 14.8517 147.151 17.6364H59.6972C58.3462 14.8517 55.4917 12.9318 52.1887 12.9318Z" fill="url(#paint4_linear_4_2)"/>
<path d="M44.6803 17.6364V18.6364H45.3066L45.58 18.0729L44.6803 17.6364ZM43.8481 17.6364V16.6364H42.8481V17.6364H43.8481ZM60.5294 48.26L60.7722 47.2899L59.5294 46.9789V48.26H60.5294ZM146.319 48.26H147.319V46.9789L146.076 47.2899L146.319 48.26ZM163 109.659L164 109.659V109.659L163 109.659ZM163 38.2841L162 38.2841V38.2841L163 38.2841ZM163 38.0227L162 38.0227V38.0227H163ZM163 21.2725L164 21.2725V21.2725H163ZM163 17.6364H164V16.6364H163V17.6364ZM162.168 17.6364L161.268 18.0729L161.542 18.6364H162.168V17.6364ZM147.151 17.6364V18.6364H147.777L148.051 18.0729L147.151 17.6364ZM59.6972 17.6364L58.7975 18.0729L59.0709 18.6364H59.6972V17.6364ZM45.58 18.0729C46.7702 15.6197 49.2833 13.9318 52.1887 13.9318V11.9318C48.4883 11.9318 45.2924 14.0837 43.7806 17.1999L45.58 18.0729ZM43.8481 18.6364H44.6803V16.6364H43.8481V18.6364ZM44.8481 21.2725V17.6364H42.8481V21.2725H44.8481ZM44.8481 38.0227V21.2725H42.8481V38.0227H44.8481ZM44.8481 38.2841V38.0227H42.8481V38.2841H44.8481ZM44.8481 109.659V38.2841H42.8481V109.659H44.8481ZM52.1887 117C48.1346 117 44.8481 113.713 44.8481 109.659H42.8481C42.8481 114.818 47.0301 119 52.1887 119V117ZM59.5294 109.659C59.5294 113.713 56.2429 117 52.1887 117V119C57.3474 119 61.5294 114.818 61.5294 109.659H59.5294ZM59.5294 48.26V109.659H61.5294V48.26H59.5294ZM103.424 51.6591C86.6338 51.6591 71.5069 49.9766 60.7722 47.2899L60.2866 49.2301C71.2242 51.9675 86.5228 53.6591 103.424 53.6591V51.6591ZM146.076 47.2899C135.341 49.9766 120.214 51.6591 103.424 51.6591V53.6591C120.325 53.6591 135.624 51.9675 146.562 49.2301L146.076 47.2899ZM147.319 109.659V48.26H145.319V109.659H147.319ZM154.659 117C150.605 117 147.319 113.713 147.319 109.659H145.319C145.319 114.818 149.501 119 154.659 119V117ZM162 109.659C162 113.713 158.713 117 154.659 117V119C159.818 119 164 114.818 164 109.659H162ZM162 38.2841L162 109.659L164 109.659L164 38.2841L162 38.2841ZM162 38.0227V38.2841H164V38.0227H162ZM162 21.2725L162 38.0227L164 38.0227L164 21.2725L162 21.2725ZM162 21.2611C162 21.2635 162 21.2659 162 21.2678C162 21.2697 162 21.2711 162 21.2725H164C164 21.27 164 21.2676 164 21.2658C164 21.2638 164 21.2624 164 21.2611H162ZM162 17.6364V21.2611H164V17.6364H162ZM162.168 18.6364H163V16.6364H162.168V18.6364ZM154.659 13.9318C157.565 13.9318 160.078 15.6197 161.268 18.0729L163.068 17.1999C161.556 14.0837 158.36 11.9318 154.659 11.9318V13.9318ZM148.051 18.0729C149.241 15.6197 151.754 13.9318 154.659 13.9318V11.9318C150.959 11.9318 147.763 14.0837 146.251 17.1999L148.051 18.0729ZM59.6972 18.6364H147.151V16.6364H59.6972V18.6364ZM52.1887 13.9318C55.0942 13.9318 57.6073 15.6197 58.7975 18.0729L60.5969 17.1999C59.085 14.0837 55.8892 11.9318 52.1887 11.9318V13.9318Z" fill="black" mask="url(#path-5-inside-1_4_2)"/>
</g>
<path id="top_2" d="M162.5 17.375C162.5 19.0651 161.065 20.8276 158.07 22.5361C155.114 24.2225 150.804 25.7578 145.433 27.0536C134.701 29.6433 119.848 31.25 103.424 31.25C87.0001 31.25 72.1474 29.6433 61.4148 27.0536C56.0446 25.7578 51.7338 24.2225 48.7776 22.5361C45.7828 20.8276 44.3481 19.0651 44.3481 17.375C44.3481 15.6849 45.7828 13.9224 48.7776 12.2139C51.7338 10.5275 56.0446 8.99217 61.4148 7.69639C72.1474 5.10674 87.0001 3.5 103.424 3.5C119.848 3.5 134.701 5.10674 145.433 7.69639C150.804 8.99217 155.114 10.5275 158.07 12.2139C161.065 13.9224 162.5 15.6849 162.5 17.375Z" fill="url(#paint5_linear_4_2)" stroke="black"/>
</g>
<rect id="top-menu" x="0.5" y="0.5" width="114.624" height="26.6846" rx="13.3423" fill="url(#paint6_linear_4_2)" stroke="#040404"/>
</g>
</g>
</g>
<defs>
<linearGradient id="paint0_linear_4_2" x1="103.841" y1="28.1506" x2="103.841" y2="130.322" gradientUnits="userSpaceOnUse">
<stop stop-color="#6964E3"/>
<stop offset="1" stop-color="#E4BBDF"/>
</linearGradient>
<linearGradient id="paint1_linear_4_2" x1="103.424" y1="48.4205" x2="103.424" y2="99.2159" gradientUnits="userSpaceOnUse">
<stop stop-color="#6964E3"/>
<stop offset="1" stop-color="#E4BBDF"/>
</linearGradient>
<linearGradient id="paint2_linear_4_2" x1="57.8118" y1="90" x2="57.8118" y2="117.685" gradientUnits="userSpaceOnUse">
<stop stop-color="#F1DDA6"/>
<stop offset="1" stop-color="#FFD850"/>
</linearGradient>
<linearGradient id="paint3_linear_4_2" x1="57.8118" y1="46" x2="57.8118" y2="73.6846" gradientUnits="userSpaceOnUse">
<stop stop-color="#F1DDA6"/>
<stop offset="1" stop-color="#FFD850"/>
</linearGradient>
<linearGradient id="paint4_linear_4_2" x1="103.424" y1="12.9318" x2="103.424" y2="118" gradientUnits="userSpaceOnUse">
<stop stop-color="#726FD5"/>
<stop offset="1" stop-color="#E4BBDF"/>
</linearGradient>
<linearGradient id="paint5_linear_4_2" x1="103.424" y1="3" x2="103.424" y2="31.75" gradientUnits="userSpaceOnUse">
<stop stop-color="#726FD5"/>
<stop offset="1" stop-color="#E4BBDF"/>
</linearGradient>
<linearGradient id="paint6_linear_4_2" x1="57.8118" y1="0" x2="57.8118" y2="27.6846" gradientUnits="userSpaceOnUse">
<stop stop-color="#F1DDA6"/>
<stop offset="1" stop-color="#FFD850"/>
</linearGradient>
</defs>
</svg>
