<svg width="90" height="40" viewBox="0 0 90 40" fill="none" xmlns="http://www.w3.org/2000/svg">
<g id="logo" clip-path="url(#clip0_1_47)">
<g id="brackets">
<path id="left" d="M25.5 0.5L0.5 20L25.5 39.5" stroke="#F1DDA6" stroke-width="4"/>
<path id="right" d="M62 40L87 20.5L62 1" stroke="#F1DDA6" stroke-width="4"/>
</g>
<g id="letters">
<path id="e" d="M18.1846 17.5524C18.1846 17.5524 35.5049 22.7107 39.835 18.6177C44.165 14.5247 39.835 10.6747 39.835 10.6747C39.835 10.6747 30.4531 4.65666 22.5146 10.6747C14.5761 16.6927 15.7717 22.9894 22.5146 30.878C30.4809 34.2825 36.3523 33.0677 42 30.878" stroke="#F1DDA6" stroke-width="4"/>
<path id="a" d="M55.9282 8C50.4866 11.1328 47.5578 12.5791 46.3828 19.6071C45.0265 26.8808 47.1752 30.3037 54.421 33C61.3744 31.1615 64.3709 28.4729 64.4689 22.2857C64.8541 15.0643 63.1118 12.5894 55.9282 8ZM55.9282 8C63.485 12.0861 67.09 16.4264 71 28.5357" stroke="#F1DDA6" stroke-width="4"/>
</g>
</g>
<defs>
<clipPath id="clip0_1_47">
<rect width="90" height="40" fill="white"/>
</clipPath>
</defs>
</svg>
