<svg width="256" height="256" viewBox="0 0 256 256" fill="none" xmlns="http://www.w3.org/2000/svg">
<g id="LOGO" clip-path="url(#clip0_4_2)">
<g id="A-DB">
<g id="bottom-db-disc">
<path id="bottom" d="M254.5 183.5C254.5 186.509 252.265 189.734 247.324 192.947C242.447 196.118 235.29 199.03 226.313 201.499C208.379 206.431 183.519 209.5 156 209.5C128.481 209.5 103.621 206.431 85.6871 201.499C76.7096 199.03 69.5532 196.118 64.6761 192.947C59.7347 189.734 57.5 186.509 57.5 183.5C57.5 180.491 59.7347 177.266 64.6761 174.053C69.5532 170.882 76.7096 167.97 85.6871 165.501C103.621 160.569 128.481 157.5 156 157.5C183.519 157.5 208.379 160.569 226.313 165.501C235.29 167.97 242.447 170.882 247.324 174.053C252.265 177.266 254.5 180.491 254.5 183.5Z" fill="black" stroke="white" stroke-width="3"/>
<g id="middle">
<mask id="path-2-inside-1_4_2" fill="white">
<path d="M56 144H256V183H56V144Z"/>
</mask>
<path d="M56 144H256V183H56V144Z" fill="black"/>
<path d="M255 144V183H257V144H255ZM57 183V144H55V183H57Z" fill="white" mask="url(#path-2-inside-1_4_2)"/>
</g>
<path id="top" d="M254.5 143.5C254.5 146.509 252.265 149.734 247.324 152.947C242.447 156.118 235.29 159.03 226.313 161.499C208.379 166.431 183.519 169.5 156 169.5C128.481 169.5 103.621 166.431 85.6871 161.499C76.7096 159.03 69.5532 156.118 64.6761 152.947C59.7347 149.734 57.5 146.509 57.5 143.5C57.5 140.491 59.7347 137.266 64.6761 134.053C69.5532 130.882 76.7096 127.97 85.6871 125.501C103.621 120.569 128.481 117.5 156 117.5C183.519 117.5 208.379 120.569 226.313 125.501C235.29 127.97 242.447 130.882 247.324 134.053C252.265 137.266 254.5 140.491 254.5 143.5Z" fill="#182139" stroke="white" stroke-width="3"/>
</g>
<g id="middle-db-disc">
<path id="bottom_2" d="M254.5 143.5C254.5 146.509 252.265 149.734 247.324 152.947C242.447 156.118 235.29 159.03 226.313 161.499C208.379 166.431 183.519 169.5 156 169.5C128.481 169.5 103.621 166.431 85.6871 161.499C76.7096 159.03 69.5532 156.118 64.6761 152.947C59.7347 149.734 57.5 146.509 57.5 143.5C57.5 140.491 59.7347 137.266 64.6761 134.053C69.5532 130.882 76.7096 127.97 85.6871 125.501C103.621 120.569 128.481 117.5 156 117.5C183.519 117.5 208.379 120.569 226.313 125.501C235.29 127.97 242.447 130.882 247.324 134.053C252.265 137.266 254.5 140.491 254.5 143.5Z" fill="black" stroke="white" stroke-width="3"/>
<g id="middle_2">
<mask id="path-6-inside-2_4_2" fill="white">
<path d="M56 104H256V143H56V104Z"/>
</mask>
<path d="M56 104H256V143H56V104Z" fill="black"/>
<path d="M255 104V143H257V104H255ZM57 143V104H55V143H57Z" fill="white" mask="url(#path-6-inside-2_4_2)"/>
</g>
<path id="top_2" d="M254.5 103.5C254.5 106.509 252.265 109.734 247.324 112.947C242.447 116.118 235.29 119.03 226.313 121.499C208.379 126.431 183.519 129.5 156 129.5C128.481 129.5 103.621 126.431 85.6871 121.499C76.7096 119.03 69.5532 116.118 64.6761 112.947C59.7347 109.734 57.5 106.509 57.5 103.5C57.5 100.491 59.7347 97.2661 64.6761 94.0533C69.5532 90.8824 76.7096 87.9697 85.6871 85.5009C103.621 80.5692 128.481 77.5 156 77.5C183.519 77.5 208.379 80.5692 226.313 85.5009C235.29 87.9697 242.447 90.8824 247.324 94.0533C252.265 97.2661 254.5 100.491 254.5 103.5Z" fill="#182139" stroke="white" stroke-width="3"/>
</g>
<g id="top-db-disc">
<g id="Union">
<mask id="path-9-inside-3_4_2" fill="white">
<path fill-rule="evenodd" clip-rule="evenodd" d="M68 55C62.4085 55 57.7102 58.8243 56.3781 64H56V67V103V103.5V244C56 250.627 61.3726 256 68 256H72C78.6274 256 84 250.627 84 244V122.584C102.189 127.773 127.724 131 156 131C184.276 131 209.811 127.773 228 122.584V244C228 250.627 233.373 256 240 256H244C250.627 256 256 250.627 256 244V103.5V103V67V64H255.622C254.29 58.8243 249.592 55 244 55H240C234.408 55 229.71 58.8243 228.378 64H83.6219C82.2898 58.8243 77.5915 55 72 55H68Z"/>
</mask>
<path fill-rule="evenodd" clip-rule="evenodd" d="M68 55C62.4085 55 57.7102 58.8243 56.3781 64H56V67V103V103.5V244C56 250.627 61.3726 256 68 256H72C78.6274 256 84 250.627 84 244V122.584C102.189 127.773 127.724 131 156 131C184.276 131 209.811 127.773 228 122.584V244C228 250.627 233.373 256 240 256H244C250.627 256 256 250.627 256 244V103.5V103V67V64H255.622C254.29 58.8243 249.592 55 244 55H240C234.408 55 229.71 58.8243 228.378 64H83.6219C82.2898 58.8243 77.5915 55 72 55H68Z" fill="black"/>
<path d="M56.3781 64V67H58.7037L59.2834 64.7478L56.3781 64ZM56 64V61H53V64H56ZM84 122.584L84.8229 119.699L81 118.609V122.584H84ZM228 122.584H231V118.609L227.177 119.699L228 122.584ZM256 64H259V61H256V64ZM255.622 64L252.717 64.7478L253.296 67H255.622V64ZM228.378 64V67H230.704L231.283 64.7478L228.378 64ZM83.6219 64L80.7166 64.7478L81.2963 67H83.6219V64ZM59.2834 64.7478C60.2826 60.8654 63.8105 58 68 58V52C61.0065 52 55.1377 56.7833 53.4727 63.2522L59.2834 64.7478ZM56 67H56.3781V61H56V67ZM59 67V64H53V67H59ZM59 103V67H53V103H59ZM59 103.5V103H53V103.5H59ZM59 244V103.5H53V244H59ZM68 253C63.0294 253 59 248.971 59 244H53C53 252.284 59.7157 259 68 259V253ZM72 253H68V259H72V253ZM81 244C81 248.971 76.9706 253 72 253V259C80.2843 259 87 252.284 87 244H81ZM81 122.584V244H87V122.584H81ZM156 128C127.915 128 102.672 124.791 84.8229 119.699L83.1771 125.469C101.706 130.755 127.533 134 156 134V128ZM227.177 119.699C209.328 124.791 184.085 128 156 128V134C184.467 134 210.294 130.755 228.823 125.469L227.177 119.699ZM231 244V122.584H225V244H231ZM240 253C235.029 253 231 248.971 231 244H225C225 252.284 231.716 259 240 259V253ZM244 253H240V259H244V253ZM253 244C253 248.971 248.971 253 244 253V259C252.284 259 259 252.284 259 244H253ZM253 103.5V244H259V103.5H253ZM253 103V103.5H259V103H253ZM253 67V103H259V67H253ZM253 64V67H259V64H253ZM255.622 67H256V61H255.622V67ZM244 58C248.19 58 251.717 60.8654 252.717 64.7478L258.527 63.2522C256.862 56.7833 250.993 52 244 52V58ZM240 58H244V52H240V58ZM231.283 64.7478C232.283 60.8654 235.81 58 240 58V52C233.007 52 227.138 56.7833 225.473 63.2522L231.283 64.7478ZM83.6219 67H228.378V61H83.6219V67ZM72 58C76.1895 58 79.7174 60.8654 80.7166 64.7478L86.5273 63.2522C84.8623 56.7833 78.9935 52 72 52V58ZM68 58H72V52H68V58Z" fill="white" mask="url(#path-9-inside-3_4_2)"/>
</g>
<path id="top_3" d="M254.5 63.5C254.5 66.5085 252.265 69.7339 247.324 72.9467C242.447 76.1176 235.29 79.0303 226.313 81.4991C208.379 86.4308 183.519 89.5 156 89.5C128.481 89.5 103.621 86.4308 85.6871 81.4991C76.7096 79.0303 69.5532 76.1176 64.6761 72.9467C59.7347 69.7339 57.5 66.5085 57.5 63.5C57.5 60.4915 59.7347 57.2661 64.6761 54.0533C69.5532 50.8824 76.7096 47.9697 85.6871 45.5009C103.621 40.5692 128.481 37.5 156 37.5C183.519 37.5 208.379 40.5692 226.313 45.5009C235.29 47.9697 242.447 50.8824 247.324 54.0533C252.265 57.2661 254.5 60.4915 254.5 63.5Z" fill="black" stroke="white" stroke-width="3"/>
</g>
</g>
<g id="E-HAMBURGER">
<rect id="bottom-menu" x="73.5" y="224.5" width="165" height="30" rx="15" fill="white" stroke="black" stroke-width="3"/>
<rect id="middle-menu" x="1.5" y="113.5" width="165" height="30" rx="15" fill="white" stroke="black" stroke-width="3"/>
<rect id="top-menu" x="73.5" y="1.5" width="165" height="30" rx="15" fill="white" stroke="black" stroke-width="3"/>
</g>
</g>
<defs>
<clipPath id="clip0_4_2">
<rect width="256" height="256" fill="white"/>
</clipPath>
</defs>
</svg>
